{"title":"The.Last.Ship.S02E13.HDTV.480p.x264.AAC-VYTO [P2PDL]","uid":12367161,"size":159423037,"categoryP":"video","categoryS":"tv_shows","magnet":"?xt=urn:btih:6890f479b11b1471cfd70b559df24930a67b35a9&amp;dn=The.Last.Ship.S02E13.HDTV.480p.x264.AAC-VYTO+%5BP2PDL%5D&amp;tr=udp%3A%2F%2Ftracker.openbittorrent.com%3A80&amp;tr=udp%3A%2F%2Fopen.demonii.com%3A1337&amp;tr=udp%3A%2F%2Ftracker.coppersurfer.tk%3A6969&amp;tr=udp%3A%2F%2Fexodus.desync.com%3A6969","seeders":2,"leechers":4,"uploader":"ValidusVyto","files":6,"time":1441614350,"description":"____    ____ ____    ____ .___________.  ______   \n     /   /      /   / |           | /  __    \n    /   /      /   /  `---|  |----`|  |  |  | \n        /     _    _/       |  |     |  |  |  | \n       /        |  |         |  |     |  `--'  | \n    __/         |__|         |__|      ______/  \n                                                  \nPresenting Small Encodes with quality for years!\n                                                                                                   \n                                                                                                   \n\nThe.Last.Ship.S02E13.HDTV.480p.x264.AAC-VYTO\n\n\nGeneral\nFormat                         : MPEG-4\nFile size                      : 146 MiB\nDuration                       : 43mn 17s\nOverall bit rate               : 471 Kbps\n\nVideo\nFormat                         : AVC\nBit rate                       : 436 Kbps\nWidth                          : 720 pixels\nHeight                         : 400 pixels\nDisplay aspect ratio           : 16:9\nFrame rate mode                : Constant\nFrame rate                     : 23.976 fps\nBit depth                      : 8 bits\nStream size                    : 135 MiB (93%)\nWriting library                : x264 core 148 r259\n\nAudio\nFormat                         : AAC\nBit rate mode                  : Variable\nBit rate                       : 32.0 Kbps\nChannel(s)                     : 2 channels \nChannel positions              : Front: L R\nSampling rate                  : 48.0 KHz \nStream size                    : 9.91 MiB (7%)\n\n\nScreenshots:\n &lt;a href=&quot;\nhttp://ititli.com/Lf&quot; rel=&quot;nofollow&quot; target=&quot;_NEW&quot;&gt;\nhttp://ititli.com/Lf&lt;/a&gt; &lt;a href=&quot;\nhttp://ititli.com/Lu&quot; rel=&quot;nofollow&quot; target=&quot;_NEW&quot;&gt;\nhttp://ititli.com/Lu&lt;/a&gt; &lt;a href=&quot;\nhttp://ititli.com/Lv&quot; rel=&quot;nofollow&quot; target=&quot;_NEW&quot;&gt;\nhttp://ititli.com/Lv&lt;/a&gt; &lt;a href=&quot;\nhttp://ititli.com/LR&quot; rel=&quot;nofollow&quot; target=&quot;_NEW&quot;&gt;\nhttp://ititli.com/LR&lt;/a&gt; &lt;a href=&quot;\nhttp://ititli.com/Ly&quot; rel=&quot;nofollow&quot; target=&quot;_NEW&quot;&gt;\nhttp://ititli.com/Ly&lt;/a&gt; &lt;a href=&quot;\nhttp://ititli.com/L3&quot; rel=&quot;nofollow&quot; target=&quot;_NEW&quot;&gt;\nhttp://ititli.com/L3&lt;/a&gt; &lt;a href=&quot;\nhttp://ititli.com/LE&quot; rel=&quot;nofollow&quot; target=&quot;_NEW&quot;&gt;\nhttp://ititli.com/LE&lt;/a&gt; &lt;a href=&quot;\nhttp://ititli.com/LQ&quot; rel=&quot;nofollow&quot; target=&quot;_NEW&quot;&gt;\nhttp://ititli.com/LQ&lt;/a&gt; &lt;a href=&quot;\nhttp://ititli.com/LS&quot; rel=&quot;nofollow&quot; target=&quot;_NEW&quot;&gt;\nhttp://ititli.com/LS&lt;/a&gt; &lt;a href=&quot;\nhttp://ititli.com/LZ&quot; rel=&quot;nofollow&quot; target=&quot;_NEW&quot;&gt;\nhttp://ititli.com/LZ&lt;/a&gt; &lt;a href=&quot;\nhttp://ititli.com/Lc&quot; rel=&quot;nofollow&quot; target=&quot;_NEW&quot;&gt;\nhttp://ititli.com/Lc&lt;/a&gt; &lt;a href=&quot;\nhttp://ititli.com/Li&quot; rel=&quot;nofollow&quot; target=&quot;_NEW&quot;&gt;\nhttp://ititli.com/Li&lt;/a&gt;\n\n----------------------------------------------------------------------------------------------------\n\n\nEncoder Notes: Looking For Early Access To Anything You Can Provide DVDScr, R5, DVDR, BluRay, Direct\nAudio, Music Releases and Seedboxes. If You Got anything to offer please contact us.\n\nSupport us by donating BC - 1FgwdzPsd1y25Gea8wP1qni35uGCtmkRCD","torrent":{"xt":"urn:btih:6890f479b11b1471cfd70b559df24930a67b35a9","amp;dn":"The.Last.Ship.S02E13.HDTV.480p.x264.AAC-VYTO+%5BP2PDL%5D","amp;tr":["udp%3A%2F%2Ftracker.openbittorrent.com%3A80","udp%3A%2F%2Fopen.demonii.com%3A1337","udp%3A%2F%2Ftracker.coppersurfer.tk%3A6969","udp%3A%2F%2Fexodus.desync.com%3A6969"],"infoHash":"6890f479b11b1471cfd70b559df24930a67b35a9","infoHashBuffer":{"type":"Buffer","data":[104,144,244,121,177,27,20,113,207,215,11,85,157,242,73,48,166,123,53,169]},"announce":[],"urlList":[]}}